<?xml version="1.0" encoding="UTF-8"?>
<svg width="100pt" height="100pt" version="1.1" viewBox="0 0 100 100" xmlns="http://www.w3.org/2000/svg">
 <path d="m40.625 28.125v-12.5c0-1.2656-0.76172-2.4023-1.9297-2.8867-1.168-0.48438-2.5117-0.21484-3.4062 0.67578l-28.125 28.125c-1.2188 1.2227-1.2188 3.1992 0 4.4219l28.125 28.125c0.89453 0.89062 2.2383 1.1602 3.4062 0.67578 1.168-0.48438 1.9297-1.6211 1.9297-2.8867v-12.5c15.082 0.078125 29.422 6.5586 39.445 17.832l8.2148 9.2461h0.003906c0.85938 0.97266 2.2344 1.3086 3.4453 0.84766 1.2148-0.46094 2.0156-1.6289 2.0156-2.9258v-3.125c-0.015625-14.086-5.6172-27.59-15.578-37.547-9.957-9.9609-23.461-15.562-37.547-15.578zm44.117 44.93c-11.27-12.672-27.418-19.922-44.375-19.93h-2.8672c-1.7266 0-3.125 1.3984-3.125 3.125v8.082l-20.582-20.582 20.582-20.582v8.082c0 0.82812 0.32812 1.625 0.91406 2.2109 0.58594 0.58594 1.3828 0.91406 2.2109 0.91406h3.125c11.484 0.015625 22.566 4.2383 31.148 11.871 8.582 7.6367 14.066 18.152 15.414 29.559z"/>
</svg>
