<?xml version="1.0" encoding="UTF-8"?>
<svg width="100pt" height="100pt" version="1.1" viewBox="0 0 100 100" xmlns="http://www.w3.org/2000/svg">
 <path d="m35.637 21.004c4.7188-0.066406 9.1562 1.0391 14.363 3.3633 5.207-2.3242 9.6445-3.4297 14.363-3.3633 4.918 0.066406 9.9688 1.4102 16.305 3.6758 0.79688 0.28516 1.332 1.0469 1.332 1.9023v2.0156c4.418 0 8 3.6094 8 8.0625v34.273c0 4.457-3.582 8.0664-8 8.0664h-64c-4.418 0-8-3.6094-8-8.0664v-34.273c0-4.4531 3.582-8.0625 8-8.0625v-2.0156c0-0.85547 0.53516-1.6172 1.332-1.9023 6.3359-2.2656 11.387-3.6094 16.305-3.6758zm-13.637 45.457v-38.449c5.5547-1.9219 9.7578-2.9219 13.695-2.9766 3.875-0.054687 7.6367 0.80859 12.305 2.8516v38.234c-8.375-2.5312-15.332-1.7695-26 0.33984zm30-0.33984v-38.234c4.668-2.043 8.4297-2.9062 12.305-2.8516 3.9375 0.054688 8.1406 1.0547 13.695 2.9766v38.449c-10.668-2.1094-17.625-2.8711-26-0.33984zm-34-33.492v36.293c0 0.60156 0.26953 1.1758 0.73438 1.5586 0.46484 0.38281 1.0742 0.53516 1.6641 0.41406 12.52-2.5586 19.098-3.4023 27.602-0.54688v4.6211h-30c-2.2109 0-4-1.8047-4-4.0352v-34.273c0-2.2266 1.7891-4.0312 4-4.0312zm34 37.719v4.6211h30c2.2109 0 4-1.8047 4-4.0352v-34.273c0-2.2266-1.7891-4.0312-4-4.0312v36.293c0 0.60156-0.26953 1.1758-0.73438 1.5586-0.46484 0.38281-1.0742 0.53516-1.6641 0.41406-12.52-2.5586-19.098-3.4023-27.602-0.54688z" fill-rule="evenodd"/>
</svg>
