<?xml version="1.0" encoding="UTF-8"?>
<svg width="100pt" height="100pt" version="1.1" viewBox="0 0 100 100" xmlns="http://www.w3.org/2000/svg">
 <path d="m93.75 50v28.125c0 4.1445-1.6445 8.1172-4.5781 11.047-2.9297 2.9336-6.9023 4.5781-11.047 4.5781h-56.25c-4.1445 0-8.1172-1.6445-11.047-4.5781-2.9336-2.9297-4.5781-6.9023-4.5781-11.047v-56.25c0-4.1445 1.6445-8.1172 4.5781-11.047 2.9297-2.9336 6.9023-4.5781 11.047-4.5781h28.125c1.7266 0 3.125 1.3984 3.125 3.125s-1.3984 3.125-3.125 3.125h-28.125c-5.1758 0-9.375 4.1992-9.375 9.375v56.25c0 5.1758 4.1992 9.375 9.375 9.375h56.25c5.1758 0 9.375-4.1992 9.375-9.375v-28.125c0-1.7266 1.3984-3.125 3.125-3.125s3.125 1.3984 3.125 3.125zm-25-37.5h14.344l-35.312 35.281c-0.58984 0.58594-0.92578 1.3867-0.92578 2.2188s0.33594 1.6328 0.92578 2.2188c0.58594 0.58984 1.3867 0.92578 2.2188 0.92578s1.6328-0.33594 2.2188-0.92578l35.281-35.281v14.312c0 0.82812 0.32812 1.625 0.91406 2.2109 0.58594 0.58594 1.3828 0.91406 2.2109 0.91406s1.625-0.32812 2.2109-0.91406c0.58594-0.58594 0.91406-1.3828 0.91406-2.2109v-21.875c0.003906-0.83203-0.32031-1.6289-0.90625-2.2188-0.58984-0.58594-1.3867-0.91016-2.2188-0.90625h-21.875c-1.7266 0-3.125 1.3984-3.125 3.125s1.3984 3.125 3.125 3.125z"/>
</svg>
